<?xml version="1.0" encoding="iso-8859-1"?>
<!-- Generator: Adobe Illustrator 19.0.0, SVG Export Plug-In . SVG Version: 6.00 Build 0)  -->
<svg version="1.1" id="Layer_1" xmlns="http://www.w3.org/2000/svg" xmlns:xlink="http://www.w3.org/1999/xlink" x="0px" y="0px"
	 viewBox="0 0 512 512" style="enable-background:new 0 0 512 512;" xml:space="preserve">
<rect x="247.912" y="136.882" style="fill:#8DCCD3;" width="16.168" height="41.796"/>
<path style="fill:#FF8163;" d="M255.999,144.69c-2.379,0-4.657-0.955-6.338-2.652l-61.876-62.391
	c-8.749-8.805-13.569-20.524-13.569-32.983c0-12.466,4.82-24.182,13.569-32.998C196.53,4.855,208.163,0,220.535,0
	c12.369,0,24.002,4.855,32.749,13.665l2.717,2.741l2.721-2.741C267.467,4.855,279.097,0,291.471,0
	c12.361,0,23.998,4.855,32.747,13.665c8.743,8.817,13.565,20.532,13.565,32.998c0,12.46-4.822,24.179-13.565,32.992l-61.876,62.382
	C260.661,143.735,258.379,144.69,255.999,144.69z"/>
<g style="opacity:0.1;">
	<path d="M221.336,68.33c-8.751-8.805-13.569-20.525-13.569-32.984c0-12.466,4.818-24.181,13.569-32.998
		c0.771-0.776,1.572-1.511,2.385-2.225C222.665,0.049,221.604,0,220.535,0c-12.372,0-24.004,4.855-32.749,13.665
		c-8.749,8.817-13.569,20.532-13.569,32.998c0,12.46,4.82,24.179,13.569,32.983l61.876,62.391c1.681,1.697,3.959,2.652,6.338,2.652
		s4.661-0.955,6.343-2.652l16.046-16.178L221.336,68.33z"/>
</g>
<path style="fill:#C9F0F4;" d="M302.771,200.57c0,7.639-6.249,13.832-13.961,13.832H223.19c-7.71,0-13.961-6.194-13.961-13.832
	v-13.832c0-7.639,6.251-13.832,13.961-13.832h65.62c7.712,0,13.961,6.194,13.961,13.832v13.832H302.771z"/>
<path style="opacity:0.1;enable-background:new    ;" d="M243.065,200.57v-13.832c0-7.639,6.251-13.832,13.961-13.832H223.19
	c-7.71,0-13.961,6.194-13.961,13.832v13.832c0,7.639,6.251,13.832,13.961,13.832h33.837
	C249.316,214.403,243.065,208.209,243.065,200.57z"/>
<path style="fill:#FFECD9;" d="M406.946,347.207c0,7.609-6.282,13.832-13.961,13.832H119.013c-7.68,0-13.961-6.223-13.961-13.832
	V218.226c0-7.607,6.282-13.831,13.961-13.831h273.972c7.68,0,13.961,6.224,13.961,13.831V347.207z"/>
<path style="fill:#FFAA99;" d="M392.986,204.394H119.013c-7.68,0-13.961,6.224-13.961,13.831v65.774
	c0.259,0.004,0.518,0.019,0.777,0.019c16.23,0,30.341-8.988,37.543-22.212c7.202,13.224,21.311,22.212,37.541,22.212
	c16.232,0,30.343-8.988,37.543-22.212c7.202,13.224,21.312,22.212,37.543,22.212s30.339-8.988,37.543-22.212
	c7.202,13.224,21.311,22.212,37.543,22.212c16.23,0,30.341-8.988,37.541-22.212c7.202,13.224,21.311,22.212,37.543,22.212
	c0.261,0,0.518-0.016,0.777-0.019v-65.774C406.946,210.618,400.665,204.394,392.986,204.394z"/>
<g>
	<path style="fill:#FFFFFF;" d="M144.977,239.293h-7.545c-4.465,0-8.085-3.62-8.085-8.084s3.621-8.083,8.085-8.083h7.545
		c4.465,0,8.083,3.618,8.083,8.083C153.06,235.674,149.442,239.293,144.977,239.293z"/>
	<path style="fill:#FFFFFF;" d="M183.781,263.006h-7.545c-4.465,0-8.085-3.618-8.085-8.083s3.621-8.084,8.085-8.084h7.545
		c4.465,0,8.083,3.62,8.083,8.084S188.246,263.006,183.781,263.006z"/>
</g>
<path style="opacity:0.1;enable-background:new    ;" d="M149.914,347.207V218.226c0-7.607,6.282-13.831,13.961-13.831h-44.862
	c-7.68,0-13.961,6.224-13.961,13.831v128.981c0,7.609,6.282,13.832,13.961,13.832h44.862
	C156.195,361.039,149.914,354.816,149.914,347.207z"/>
<g>
	<path style="fill:#FFFFFF;" d="M218.273,239.293h-7.545c-4.465,0-8.083-3.62-8.083-8.084s3.618-8.083,8.083-8.083h7.545
		c4.465,0,8.085,3.618,8.085,8.083C226.359,235.674,222.738,239.293,218.273,239.293z"/>
	<path style="fill:#FFFFFF;" d="M260.308,263.006h-7.545c-4.465,0-8.083-3.618-8.083-8.083s3.618-8.084,8.083-8.084h7.545
		c4.465,0,8.085,3.62,8.085,8.084S264.772,263.006,260.308,263.006z"/>
	<path style="fill:#FFFFFF;" d="M294.802,239.293h-7.547c-4.464,0-8.083-3.62-8.083-8.084s3.621-8.083,8.083-8.083h7.547
		c4.465,0,8.083,3.618,8.083,8.083C302.885,235.674,299.267,239.293,294.802,239.293z"/>
	<path style="fill:#FFFFFF;" d="M335.765,263.006h-7.547c-4.465,0-8.083-3.618-8.083-8.083s3.618-8.084,8.083-8.084h7.547
		c4.465,0,8.083,3.62,8.083,8.084S340.23,263.006,335.765,263.006z"/>
	<path style="fill:#FFFFFF;" d="M370.257,239.293h-7.545c-4.466,0-8.083-3.62-8.083-8.084s3.618-8.083,8.083-8.083h7.545
		c4.465,0,8.083,3.618,8.083,8.083C378.34,235.674,374.722,239.293,370.257,239.293z"/>
</g>
<path style="fill:#FFECD9;" d="M437.251,477.772c0,7.609-6.282,13.832-13.959,13.832H88.709c-7.68,0-13.963-6.223-13.963-13.832
	V349.997c0-7.607,6.284-13.832,13.963-13.832h334.582c7.678,0,13.959,6.226,13.959,13.832v127.775H437.251z"/>
<path style="fill:#FFAA99;" d="M423.291,336.165H88.709c-7.68,0-13.963,6.226-13.963,13.832v59.863
	c2.728,0.466,5.531,0.723,8.392,0.723c18.684,0,34.927-10.346,43.216-25.57c8.29,15.223,24.531,25.57,43.214,25.57
	s34.927-10.346,43.214-25.57c8.29,15.223,24.533,25.57,43.216,25.57s34.923-10.346,43.216-25.57
	c8.29,15.223,24.531,25.57,43.214,25.57c18.683,0,34.925-10.346,43.214-25.57c8.29,15.223,24.533,25.57,43.216,25.57
	c2.861,0,5.663-0.257,8.389-0.723v-59.863C437.251,342.39,430.969,336.165,423.291,336.165z"/>
<path style="opacity:0.1;enable-background:new    ;" d="M119.608,477.772V349.997c0-7.607,6.284-13.832,13.963-13.832H88.709
	c-7.68,0-13.963,6.226-13.963,13.832v127.775c0,7.609,6.284,13.832,13.963,13.832h44.862
	C125.891,491.605,119.608,485.381,119.608,477.772z"/>
<path style="fill:#C9F0F4;" d="M503.248,505.084c0,3.806-3.141,6.916-6.982,6.916H15.733c-3.839,0-6.982-3.112-6.982-6.916v-31.765
	c0-3.802,3.143-6.915,6.982-6.915h480.535c3.841,0,6.982,3.113,6.982,6.915v31.765H503.248z"/>
<path style="fill:#8DCCD3;" d="M503.248,505.084c0,3.806-3.141,6.916-6.982,6.916H15.733c-3.839,0-6.982-3.112-6.982-6.916v-31.765
	c0-3.802,3.143-6.915,6.982-6.915h480.535c3.841,0,6.982,3.113,6.982,6.915v31.765H503.248z"/>
<path style="opacity:0.1;enable-background:new    ;" d="M65.212,505.084v-31.765c0-3.802,3.141-6.915,6.982-6.915H15.733
	c-3.839,0-6.982,3.113-6.982,6.915v31.765c0,3.806,3.143,6.916,6.982,6.916h56.461C68.353,512,65.212,508.888,65.212,505.084z"/>
<g>
</g>
<g>
</g>
<g>
</g>
<g>
</g>
<g>
</g>
<g>
</g>
<g>
</g>
<g>
</g>
<g>
</g>
<g>
</g>
<g>
</g>
<g>
</g>
<g>
</g>
<g>
</g>
<g>
</g>
</svg>
